<?xml version="1.0" standalone="no"?>
<!DOCTYPE svg PUBLIC "-//W3C//DTD SVG 20010904//EN"
 "http://www.w3.org/TR/2001/REC-SVG-20010904/DTD/svg10.dtd">
<svg version="1.0" xmlns="http://www.w3.org/2000/svg"
 width="1300.000000pt" height="190.000000pt" viewBox="0 0 1300.000000 190.000000"
 preserveAspectRatio="xMidYMid meet">

<g transform="translate(0.000000,190.000000) scale(0.100000,-0.100000)"
fill="#000000" stroke="none">
<path d="M984 1839 c-298 -101 -551 -284 -743 -539 l-64 -85 7 -135 c15 -299
107 -576 269 -814 68 -99 75 -103 222 -143 294 -79 613 -67 907 34 42 15 52
26 113 117 172 259 264 557 265 860 l0 89 -55 74 c-178 236 -399 405 -672 514
-152 61 -151 60 -249 28z m110 -93 c22 -46 20 -114 -3 -149 l-18 -28 -22 27
c-26 33 -28 99 -4 149 9 19 20 35 24 35 4 0 14 -15 23 -34z m-123 -25 c-29
-53 -5 -108 60 -141 37 -19 42 -20 73 -5 58 28 79 57 74 107 -3 24 -9 52 -13
63 -9 20 -9 20 20 1 66 -41 85 -67 85 -113 0 -38 -4 -46 -32 -63 -17 -10 -60
-22 -95 -26 -37 -3 -61 -10 -56 -15 5 -5 24 -4 43 1 19 6 60 10 92 10 50 0 59
3 78 27 18 23 20 36 15 70 -7 48 -5 49 33 29 37 -19 69 -56 77 -86 9 -36 -31
-91 -77 -108 -33 -13 -44 -13 -85 1 -48 15 -84 20 -135 18 -24 -1 -26 -4 -19
-28 4 -16 11 -27 14 -26 49 12 74 12 125 -1 70 -19 136 -20 180 -5 37 13 56
53 50 109 -4 48 6 51 61 14 42 -28 71 -76 71 -119 0 -120 -160 -152 -332 -66
-88 44 -109 49 -127 27 -9 -11 -9 -25 -1 -56 11 -41 12 -42 32 -23 29 26 94
21 202 -16 60 -21 109 -31 148 -31 52 0 60 3 92 35 21 20 38 49 42 70 9 49 18
50 48 10 52 -68 70 -144 45 -197 -15 -33 -66 -65 -126 -79 -77 -18 -130 0
-212 73 -142 128 -260 147 -231 38 l11 -41 48 7 c45 6 56 2 178 -61 103 -54
142 -69 186 -73 110 -9 172 22 209 105 10 24 23 43 28 43 13 0 47 -69 55 -112
14 -75 -41 -174 -119 -216 -19 -10 -56 -16 -97 -16 -94 0 -164 44 -246 155
-71 97 -132 132 -198 115 -21 -5 -23 -9 -15 -31 8 -22 3 -32 -51 -90 l-61 -64
27 -34 26 -35 -21 -35 -20 -34 42 -6 c40 -5 45 -3 71 29 26 31 82 64 109 64
13 0 1 -86 -18 -122 l-14 -26 32 16 c39 19 99 18 208 -2 45 -9 121 -16 169
-16 79 -1 84 -2 66 -16 -62 -47 -153 -87 -232 -103 l-86 -17 27 -17 c14 -10
37 -22 51 -27 14 -5 25 -14 25 -18 0 -21 -153 -29 -225 -12 -22 5 -41 7 -43 5
-3 -2 5 -20 17 -40 39 -67 34 -72 -71 -67 -73 3 -103 9 -140 27 l-48 24 -47
-24 c-38 -18 -68 -24 -140 -27 -105 -5 -108 -2 -71 62 13 21 20 41 18 44 -3 3
-26 0 -50 -6 -51 -11 -197 -5 -212 10 -6 6 13 20 49 38 50 25 54 29 33 32
-102 14 -169 35 -244 79 l-81 48 115 6 c63 3 124 9 135 12 58 19 152 24 195
11 25 -8 46 -14 48 -14 1 0 -4 12 -12 28 -7 15 -17 46 -21 70 -6 35 -4 42 10
42 28 0 72 -28 103 -65 27 -33 32 -35 70 -29 23 4 42 9 42 11 0 3 -9 18 -21
34 l-21 30 27 35 26 34 -56 63 c-45 50 -55 67 -52 90 3 22 -1 29 -20 33 -66
17 -135 -26 -199 -122 -66 -99 -146 -147 -246 -147 -69 0 -95 10 -146 57 -64
57 -84 181 -39 246 29 44 43 47 50 12 3 -15 24 -47 46 -69 31 -33 50 -43 86
-49 85 -12 133 0 271 72 122 62 135 67 177 61 l46 -7 12 40 c33 108 -91 89
-226 -35 -79 -72 -135 -92 -214 -75 -31 6 -66 18 -79 26 -31 20 -62 73 -62
105 0 40 26 105 57 144 31 39 43 44 43 18 0 -32 40 -98 69 -116 43 -25 115
-21 213 12 116 39 157 45 192 26 34 -18 42 -14 51 26 8 33 -7 59 -35 59 -9 0
-53 -18 -97 -40 -132 -67 -251 -66 -308 1 -45 54 -26 128 47 181 60 45 65 44
64 -23 -1 -47 3 -62 20 -79 30 -30 120 -37 201 -16 38 10 78 14 101 10 35 -5
40 -4 45 17 3 13 4 26 1 29 -11 11 -101 3 -148 -14 -61 -21 -96 -14 -136 26
-36 36 -40 83 -9 122 18 23 67 56 84 56 3 0 5 -24 5 -54 0 -71 19 -86 105 -85
54 1 56 2 22 9 -49 9 -87 45 -87 82 0 41 15 64 63 99 42 31 57 27 38 -10z
m-410 -1238 c16 -35 34 -63 39 -63 5 0 16 10 24 22 l16 22 37 -22 c269 -161
509 -161 776 0 l38 23 18 -23 c16 -22 18 -22 33 -5 8 10 24 38 35 63 11 25 30
54 43 65 l22 20 -7 -49 c-8 -49 -8 -49 18 -42 14 3 33 9 44 13 16 5 15 3 -4
-18 -11 -13 -27 -44 -33 -69 -27 -102 -61 -131 -84 -75 -14 33 -32 52 -20 21
11 -30 -209 -139 -336 -167 -84 -18 -227 -18 -310 0 -138 30 -348 136 -335
169 4 12 3 13 -10 2 -8 -7 -15 -20 -15 -30 0 -43 -34 -32 -60 21 -11 21 -20
46 -20 56 0 10 -12 36 -26 57 -21 31 -23 38 -10 33 10 -4 29 -10 43 -13 24 -7
25 -6 17 42 l-7 49 22 -19 c12 -11 35 -48 52 -83z"/>
<path d="M1019 1529 c16 -6 28 -6 35 1 7 7 -1 10 -24 9 -33 0 -34 -1 -11 -10z"/>
<path d="M934 754 c-18 -14 -18 -15 5 -4 23 12 56 10 96 -4 13 -5 11 -2 -5 8
-32 20 -71 20 -96 0z"/>
<path d="M1110 754 c-16 -10 -18 -13 -5 -8 40 14 73 16 96 4 23 -11 23 -10 5
4 -25 20 -64 20 -96 0z"/>
<path d="M1190 730 c8 -5 20 -10 25 -10 6 0 3 5 -5 10 -8 5 -19 10 -25 10 -5
0 -3 -5 5 -10z"/>
<path d="M1030 720 c8 -5 28 -10 44 -10 39 0 30 6 -19 13 -27 4 -35 3 -25 -3z"/>
<path d="M961 716 c2 -2 18 -6 34 -10 22 -5 26 -4 15 4 -14 9 -59 15 -49 6z"/>
<path d="M1158 713 c7 -3 16 -2 19 1 4 3 -2 6 -13 5 -11 0 -14 -3 -6 -6z"/>
<path d="M963 683 c9 -2 25 -2 35 0 9 3 1 5 -18 5 -19 0 -27 -2 -17 -5z"/>
<path d="M1058 683 c6 -2 18 -2 25 0 6 3 1 5 -13 5 -14 0 -19 -2 -12 -5z"/>
<path d="M1153 683 c9 -2 23 -2 30 0 6 3 -1 5 -18 5 -16 0 -22 -2 -12 -5z"/>
<path d="M1100 670 c-8 -5 -10 -10 -5 -10 6 0 17 5 25 10 8 5 11 10 5 10 -5 0
-17 -5 -25 -10z"/>
<path d="M1207 669 c7 -7 15 -10 18 -7 3 3 -2 9 -12 12 -14 6 -15 5 -6 -5z"/>
<path d="M930 650 c-8 -5 -10 -10 -5 -10 6 0 17 5 25 10 8 5 11 10 5 10 -5 0
-17 -5 -25 -10z"/>
<path d="M998 653 c7 -3 16 -2 19 1 4 3 -2 6 -13 5 -11 0 -14 -3 -6 -6z"/>
<path d="M1110 650 c-8 -5 -26 -10 -40 -11 -20 -1 -21 -2 -5 -6 12 -2 36 3 55
11 19 8 28 15 20 15 -8 1 -22 -4 -30 -9z"/>
<path d="M968 633 c6 -2 18 -2 25 0 6 3 1 5 -13 5 -14 0 -19 -2 -12 -5z"/>
<path d="M1166 631 c17 -4 37 -11 45 -15 8 -4 5 0 -5 8 -11 9 -31 16 -45 15
-24 -1 -24 -2 5 -8z"/>
<path d="M925 620 c-3 -6 1 -7 9 -4 18 7 21 14 7 14 -6 0 -13 -4 -16 -10z"/>
<path d="M1020 620 c8 -5 20 -10 25 -10 6 0 3 5 -5 10 -8 5 -19 10 -25 10 -5
0 -3 -5 5 -10z"/>
<path d="M1100 620 c-8 -5 -10 -10 -5 -10 6 0 17 5 25 10 8 5 11 10 5 10 -5 0
-17 -5 -25 -10z"/>
<path d="M1030 590 c8 -5 20 -10 25 -10 6 0 3 5 -5 10 -8 5 -19 10 -25 10 -5
0 -3 -5 5 -10z"/>
<path d="M1165 580 c27 -12 43 -12 25 0 -8 5 -22 9 -30 9 -10 0 -8 -3 5 -9z"/>
<path d="M930 570 c-8 -5 -10 -10 -5 -10 6 0 17 5 25 10 8 5 11 10 5 10 -5 0
-17 -5 -25 -10z"/>
<path d="M968 553 c6 -2 18 -2 25 0 6 3 1 5 -13 5 -14 0 -19 -2 -12 -5z"/>
<path d="M1058 553 c6 -2 18 -2 25 0 6 3 1 5 -13 5 -14 0 -19 -2 -12 -5z"/>
<path d="M1153 553 c9 -2 23 -2 30 0 6 3 -1 5 -18 5 -16 0 -22 -2 -12 -5z"/>
<path d="M925 540 c-3 -6 1 -7 9 -4 18 7 21 14 7 14 -6 0 -13 -4 -16 -10z"/>
<path d="M1020 540 c8 -5 20 -10 25 -10 6 0 3 5 -5 10 -8 5 -19 10 -25 10 -5
0 -3 -5 5 -10z"/>
<path d="M1100 540 c-8 -5 -10 -10 -5 -10 6 0 17 5 25 10 8 5 11 10 5 10 -5 0
-17 -5 -25 -10z"/>
<path d="M963 523 c9 -2 25 -2 35 0 9 3 1 5 -18 5 -19 0 -27 -2 -17 -5z"/>
<path d="M1143 523 c9 -2 25 -2 35 0 9 3 1 5 -18 5 -19 0 -27 -2 -17 -5z"/>
<path d="M1095 510 c-16 -7 -17 -9 -3 -9 9 -1 20 4 23 9 7 11 7 11 -20 0z"/>
<path d="M660 386 c-7 -14 -10 -32 -7 -40 10 -26 35 -18 52 17 l16 32 -24 -29
c-27 -31 -46 -21 -27 15 7 11 10 23 7 25 -2 2 -9 -7 -17 -20z"/>
<path d="M1445 376 c12 -18 13 -26 4 -31 -10 -7 -23 5 -32 30 -3 6 -8 7 -12 3
-10 -10 23 -48 42 -48 7 0 16 6 19 14 6 17 -12 56 -27 56 -5 0 -2 -11 6 -24z"/>
<path d="M717 353 c-20 -38 -22 -55 -3 -30 13 16 14 16 20 -5 6 -23 7 -23 21
-4 19 25 19 37 1 30 -10 -4 -16 2 -18 18 -3 22 -4 21 -21 -9z"/>
<path d="M1360 325 c0 -36 13 -47 24 -20 3 9 12 12 23 8 14 -5 13 0 -6 20 -32
36 -41 34 -41 -8z m30 5 c0 -5 -4 -10 -10 -10 -5 0 -10 5 -10 10 0 6 5 10 10
10 6 0 10 -4 10 -10z"/>
<path d="M775 321 c-9 -19 -11 -32 -5 -36 6 -3 10 -5 10 -3 0 2 4 18 9 36 12
40 6 41 -14 3z"/>
<path d="M807 334 c-10 -11 -9 -62 2 -69 5 -3 12 -2 15 3 7 12 -8 75 -17 66z"/>
<path d="M1320 333 c1 -13 29 -59 30 -48 0 21 -13 55 -21 55 -5 0 -9 -3 -9 -7z"/>
<path d="M1273 322 c-6 -4 -9 -19 -6 -35 6 -30 23 -37 23 -10 0 13 3 14 12 5
16 -16 31 -15 21 1 -4 6 -8 19 -8 27 0 17 -24 24 -42 12z m27 -12 c0 -5 -5
-10 -11 -10 -5 0 -7 5 -4 10 3 6 8 10 11 10 2 0 4 -4 4 -10z"/>
<path d="M836 304 c-6 -15 -4 -15 10 -3 15 12 16 11 10 -19 -5 -19 -4 -32 2
-32 6 0 19 -3 29 -6 17 -5 17 -5 1 9 -10 8 -18 17 -18 20 0 4 8 4 18 1 14 -5
14 -3 -2 10 -19 16 -19 16 5 17 22 0 23 1 4 9 -32 14 -52 11 -59 -6z"/>
<path d="M916 278 c-9 -35 -7 -41 9 -28 12 10 16 9 21 -4 10 -26 19 -18 21 19
3 31 0 35 -21 35 -16 0 -26 -7 -30 -22z m44 2 c0 -5 -7 -10 -15 -10 -8 0 -15
5 -15 10 0 6 7 10 15 10 8 0 15 -4 15 -10z"/>
<path d="M1180 287 c0 -8 10 -19 23 -25 20 -10 20 -11 3 -11 -15 -1 -17 -4 -8
-13 8 -8 15 -8 27 2 22 18 19 29 -12 37 l-28 7 25 7 25 7 -27 1 c-17 1 -28 -4
-28 -12z"/>
<path d="M985 281 c-3 -5 5 -17 17 -25 12 -9 19 -19 15 -22 -4 -4 -14 -1 -23
7 -15 12 -17 12 -12 -1 7 -21 37 -25 44 -5 4 9 -1 22 -12 31 -17 14 -17 15 -1
10 9 -3 17 -1 17 4 0 13 -37 13 -45 1z"/>
<path d="M1040 255 c0 -19 5 -35 10 -35 6 0 10 16 10 35 0 19 -4 35 -10 35 -5
0 -10 -16 -10 -35z"/>
<path d="M1083 253 l12 -38 3 30 c2 16 9 33 15 37 7 5 1 8 -15 8 -26 0 -26 -1
-15 -37z"/>
<path d="M1125 259 c-4 -17 -4 -33 -1 -36 3 -4 6 -1 6 6 0 9 8 11 25 7 26 -7
26 -7 10 24 -20 38 -32 38 -40 -1z"/>
<path d="M11864 1850 c-225 -28 -458 -158 -592 -332 -135 -176 -195 -347 -195
-563 1 -424 269 -764 691 -876 108 -29 306 -29 414 0 347 91 578 323 669 669
29 108 29 306 0 414 -65 250 -204 439 -415 567 -161 97 -383 144 -572 121z
m-240 -523 c54 -30 78 -67 83 -124 4 -36 0 -60 -15 -89 -19 -38 -19 -40 -1
-69 27 -43 25 -120 -4 -167 -28 -47 -62 -73 -112 -87 -44 -12 -195 -15 -269
-5 l-46 7 0 169 0 170 34 34 c21 21 44 34 60 34 22 0 26 -4 26 -30 l0 -30 93
0 c98 0 117 7 117 45 0 39 -18 45 -134 45 -122 0 -165 15 -188 64 -23 52 -13
56 159 56 145 0 161 -2 197 -23z m229 -18 l27 -29 0 -175 c0 -191 0 -190 -57
-155 -56 33 -63 61 -63 233 0 84 3 157 7 161 14 13 58 -5 86 -35z m480 -1 c27
-32 27 -34 27 -170 0 -148 11 -197 48 -217 30 -16 173 -15 171 2 -1 6 -1 56 0
110 1 99 1 99 35 133 34 34 76 46 76 22 3 -92 -1 -391 -5 -398 -4 -6 -57 -10
-119 -10 -177 0 -250 32 -300 132 -25 50 -26 58 -26 238 0 103 3 190 7 194 14
14 58 -5 86 -36z m355 -12 c4 -61 -6 -73 -46 -52 -37 19 -62 53 -62 84 0 22 3
23 53 20 l52 -3 3 -49z m-543 -400 c33 -14 75 -66 75 -93 0 -10 -53 -13 -231
-13 l-230 0 6 23 c12 40 36 68 68 82 45 20 266 20 312 1z m-225 -196 c0 -18
-7 -20 -65 -20 -37 0 -65 -4 -65 -10 0 -5 20 -10 44 -10 60 0 76 -8 76 -37 0
-54 -14 -63 -100 -63 -73 0 -80 2 -80 20 0 18 7 20 70 20 87 0 93 18 8 22 -63
3 -63 3 -63 33 -1 26 -5 30 -30 33 -43 4 -57 10 -50 22 4 6 58 10 131 10 117
0 124 -1 124 -20z m190 5 c14 -17 6 -62 -17 -87 -12 -13 -31 -18 -70 -18 -48
0 -54 -3 -63 -25 -5 -14 -17 -25 -26 -25 -14 0 -15 9 -9 63 13 106 13 107 99
107 53 0 77 -4 86 -15z m198 -2 c-3 -15 -16 -18 -86 -21 -45 -2 -82 1 -82 6 0
22 29 32 98 32 65 0 73 -2 70 -17z m182 -3 c0 -18 -7 -20 -80 -20 -44 0 -80 4
-80 8 0 22 29 32 92 32 61 0 68 -2 68 -20z m182 3 c10 -9 18 -27 18 -40 0 -28
-24 -88 -38 -97 -5 -3 -44 -8 -86 -12 -70 -5 -76 -4 -76 13 0 24 20 135 27
146 2 4 34 7 70 7 48 0 72 -5 85 -17z m-952 -33 c29 -18 -5 -30 -80 -30 -77 0
-108 12 -79 31 17 11 142 10 159 -1z m570 -30 c0 -18 -7 -20 -65 -20 -37 0
-65 -4 -65 -10 0 -6 26 -10 59 -10 41 0 60 -4 64 -14 9 -22 -2 -26 -79 -26
-85 0 -102 14 -83 69 l11 31 79 0 c72 0 79 -2 79 -20z m190 0 c0 -18 -7 -20
-65 -20 -37 0 -65 -4 -65 -10 0 -6 27 -10 60 -10 53 0 60 -2 60 -20 0 -18 -7
-20 -75 -20 -69 0 -76 2 -86 23 -7 15 -7 31 0 50 10 26 13 27 91 27 73 0 80
-2 80 -20z m-912 -27 c-2 -10 -12 -18 -23 -18 -11 0 -21 8 -23 18 -3 13 3 17
23 17 20 0 26 -4 23 -17z m158 6 c4 -7 0 -16 -9 -21 -9 -5 -14 -15 -11 -23 5
-12 -3 -15 -35 -15 -31 0 -41 4 -39 14 2 8 -1 15 -7 15 -5 1 -10 -5 -10 -11 0
-7 -12 -14 -27 -16 -29 -3 -38 11 -15 25 8 4 16 16 20 26 5 13 18 17 66 17 34
0 63 -5 67 -11z"/>
<path d="M11380 965 l0 -55 93 0 c101 0 117 7 117 51 0 48 -22 59 -121 59
l-89 0 0 -55z"/>
<path d="M11977 659 c-5 -18 -2 -20 41 -17 35 2 48 7 50 21 3 14 -4 17 -41 17
-37 0 -46 -4 -50 -21z"/>
<path d="M12546 649 c-11 -58 -10 -60 36 -57 36 2 45 8 56 31 18 38 2 57 -48
57 -34 0 -38 -3 -44 -31z"/>
<path d="M5905 1346 c-103 -46 -146 -194 -91 -311 27 -58 54 -84 157 -153 106
-71 139 -111 139 -168 0 -39 -5 -51 -34 -80 -28 -28 -41 -34 -77 -34 -82 0
-156 72 -186 182 -9 32 -20 58 -25 58 -4 0 -8 -63 -8 -140 0 -90 4 -140 10
-140 6 0 13 7 16 15 12 31 38 34 94 9 102 -43 195 -25 258 51 36 44 52 96 52
166 -1 103 -43 160 -190 259 -102 69 -140 110 -140 151 0 37 24 85 49 99 33
17 92 12 127 -12 41 -28 90 -104 99 -151 14 -73 25 -34 25 88 0 117 -10 157
-24 100 -8 -31 -21 -31 -88 0 -59 27 -117 31 -163 11z"/>
<path d="M7480 1358 c0 -14 -234 -667 -251 -700 -11 -21 -30 -45 -44 -54 -14
-9 -25 -19 -25 -23 0 -7 200 -5 207 3 3 3 -10 9 -28 14 -20 5 -40 19 -48 34
-13 22 -12 33 9 97 l23 71 106 0 107 0 23 -73 c30 -94 26 -118 -19 -134 -19
-7 -30 -12 -25 -13 41 -6 285 -4 285 2 0 4 -9 12 -20 18 -11 6 -27 24 -36 41
-17 34 -105 281 -191 539 -47 139 -73 203 -73 178z m-6 -380 c22 -62 41 -119
44 -125 3 -10 -19 -13 -88 -13 -50 0 -90 4 -88 8 2 5 21 61 43 125 22 64 42
117 45 117 3 0 23 -51 44 -112z"/>
<path d="M7975 1344 c-47 -24 -66 -45 -91 -99 -19 -39 -23 -62 -20 -115 5
-108 44 -158 201 -262 124 -82 154 -165 85 -238 -24 -25 -36 -30 -77 -30 -87
0 -152 66 -193 198 l-18 57 -1 -150 c0 -148 0 -150 18 -127 24 27 46 28 102 2
48 -22 122 -26 166 -9 37 14 90 65 113 109 45 88 31 200 -35 277 -19 22 -72
65 -117 93 -98 62 -125 85 -145 124 -34 65 17 146 92 146 73 0 141 -63 167
-154 21 -76 28 -60 28 67 0 70 -2 127 -5 127 -3 0 -10 -11 -15 -25 -5 -14 -16
-25 -24 -25 -8 0 -36 11 -62 25 -55 29 -124 33 -169 9z"/>
<path d="M9805 1083 c-147 -416 -154 -434 -192 -470 -18 -17 -33 -33 -33 -35
0 -5 202 1 207 6 3 3 -10 9 -28 14 -20 5 -40 19 -48 34 -13 22 -12 33 9 97
l23 71 106 0 107 0 23 -73 c30 -94 26 -118 -19 -134 -19 -7 -30 -12 -25 -13
21 -3 285 -5 285 -2 0 1 -14 17 -31 35 -32 32 -81 161 -220 577 -29 85 -55
159 -59 163 -4 4 -51 -117 -105 -270z m89 -106 c21 -61 41 -118 44 -124 3 -10
-19 -13 -88 -13 -70 0 -91 3 -87 13 2 6 22 63 43 124 22 62 41 113 44 113 3 0
23 -51 44 -113z"/>
<path d="M2179 1326 c19 -7 38 -21 42 -32 4 -10 8 -136 8 -280 1 -308 7 -339
75 -402 49 -45 101 -59 188 -49 59 7 96 28 136 80 44 55 52 111 52 377 0 157
4 248 11 264 7 14 28 32 48 40 35 15 33 15 -74 15 -105 -1 -108 -1 -77 -15 60
-26 65 -55 60 -329 -4 -201 -7 -247 -22 -283 -47 -111 -175 -133 -231 -39 -18
29 -20 55 -23 312 -3 311 -1 322 58 342 30 10 12 12 -125 12 -139 0 -156 -2
-126 -13z"/>
<path d="M2825 1321 c65 -39 65 -40 65 -365 0 -202 -4 -303 -12 -320 -6 -15
-26 -31 -44 -38 -19 -6 -32 -14 -29 -16 7 -7 204 -6 212 1 3 4 -3 7 -15 7 -11
0 -34 11 -49 24 l-28 24 -3 219 c-2 120 -2 245 0 278 l3 60 86 -135 c47 -74
137 -217 200 -317 63 -100 117 -183 121 -183 4 0 8 162 10 359 3 337 4 360 22
380 11 12 25 21 32 21 7 0 16 5 19 10 4 6 -31 10 -97 9 -102 0 -103 0 -66 -15
54 -23 59 -44 56 -253 l-3 -185 -144 227 -143 227 -112 0 -111 0 30 -19z"/>
<path d="M3495 1328 c57 -20 55 -5 55 -364 0 -321 -1 -335 -20 -354 -11 -11
-29 -20 -40 -20 -11 0 -20 -3 -20 -7 0 -9 309 -8 317 1 4 3 -5 6 -18 6 -14 0
-35 7 -47 16 -22 15 -22 15 -22 348 0 250 3 336 13 348 6 9 28 21 47 26 26 8
-6 10 -130 10 -128 0 -158 -2 -135 -10z"/>
<path d="M3815 1330 c3 -5 12 -10 19 -10 8 0 19 -7 26 -15 7 -9 68 -179 135
-378 67 -199 126 -361 131 -360 5 1 61 151 125 333 127 360 143 397 177 413
42 20 22 27 -75 26 l-98 -1 38 -15 c60 -25 59 -42 -18 -268 -82 -243 -84 -249
-90 -243 -14 14 -155 457 -153 478 2 18 12 28 38 37 30 10 15 12 -113 12 -96
1 -146 -2 -142 -9z"/>
<path d="M4514 1325 c21 -7 43 -20 47 -27 13 -19 11 -655 -1 -678 -6 -11 -26
-22 -46 -26 -19 -3 -33 -9 -30 -11 2 -3 120 -5 262 -4 238 1 258 2 260 18 21
176 25 216 20 220 -3 3 -8 0 -10 -8 -44 -141 -92 -186 -205 -196 -92 -8 -95
-2 -99 172 -2 86 0 151 6 157 6 6 22 4 44 -5 40 -17 65 -61 74 -131 14 -100
24 -36 24 154 0 191 -10 255 -24 153 -8 -60 -38 -110 -73 -124 -51 -19 -53
-13 -53 157 l0 156 84 -3 c81 -4 87 -6 120 -38 26 -25 39 -49 47 -88 7 -29 16
-53 21 -53 4 0 8 50 8 110 l0 110 -257 0 c-233 -1 -254 -2 -219 -15z"/>
<path d="M5124 1325 c21 -7 43 -20 47 -27 13 -19 11 -655 -1 -678 -6 -11 -26
-22 -46 -26 -19 -3 -33 -9 -30 -11 7 -8 306 -9 306 -2 0 4 -12 10 -27 14 -52
13 -53 17 -53 181 0 211 6 210 138 -22 l100 -176 92 0 c50 0 94 2 96 5 3 2 -6
11 -19 20 -14 9 -59 78 -102 154 -43 76 -84 148 -93 160 -13 21 -12 23 4 29
78 28 119 104 112 207 -5 82 -40 140 -101 168 -37 16 -67 19 -252 18 -191 0
-207 -1 -171 -14z m305 -31 c52 -21 81 -77 81 -157 0 -111 -38 -158 -130 -165
l-60 -4 0 171 0 171 35 0 c19 0 52 -7 74 -16z"/>
<path d="M6293 1330 c59 -18 57 -3 57 -371 0 -338 0 -338 -22 -353 -12 -9 -30
-16 -40 -16 -10 0 -18 -3 -18 -7 0 -8 308 -8 316 0 3 2 -11 8 -30 11 -20 4
-40 15 -46 26 -16 29 -13 662 3 682 6 9 28 21 47 26 26 8 -6 10 -130 10 -105
0 -155 -3 -137 -8z"/>
<path d="M6640 1240 c0 -55 4 -100 9 -100 5 0 14 21 20 47 8 28 25 59 46 80
28 28 40 33 79 33 l46 0 0 -335 c0 -322 -1 -336 -20 -355 -11 -11 -29 -20 -40
-20 -11 0 -20 -3 -20 -7 0 -9 309 -8 317 1 4 3 -5 6 -18 6 -14 0 -35 7 -47 16
-22 15 -22 15 -22 355 l0 339 49 0 c43 0 52 -4 80 -35 17 -20 36 -56 42 -80 6
-25 15 -45 20 -45 5 0 9 45 9 100 l0 100 -275 0 -275 0 0 -100z"/>
<path d="M8600 1326 c58 -21 60 -29 60 -366 0 -335 -2 -348 -58 -365 -17 -5
-32 -12 -32 -15 0 -3 70 -5 155 -5 85 0 155 2 155 5 0 3 -15 10 -32 15 -50 15
-58 42 -58 198 0 135 0 137 23 137 18 0 39 -30 122 -176 l100 -176 93 -2 c65
-1 92 2 92 11 0 6 -9 14 -19 18 -12 3 -54 68 -108 163 -48 86 -89 159 -91 163
-2 4 17 18 41 32 28 17 51 40 62 64 24 49 31 131 15 178 -17 52 -75 113 -118
125 -21 5 -127 10 -237 9 -173 0 -195 -2 -165 -13z m330 -44 c39 -29 54 -70
54 -147 0 -117 -42 -165 -144 -165 l-50 0 0 163 c0 90 3 167 8 171 12 13 105
-3 132 -22z"/>
<path d="M9254 1330 c15 -5 37 -17 47 -26 18 -16 19 -36 19 -341 l0 -324 -25
-24 c-13 -14 -34 -25 -46 -25 -12 0 -20 -3 -16 -6 7 -7 317 -11 317 -4 0 3
-15 10 -32 15 -56 17 -58 30 -58 365 0 337 2 347 60 367 30 10 10 12 -130 12
-108 -1 -155 -4 -136 -9z"/>
<path d="M10288 1325 c17 -8 36 -26 42 -39 5 -14 10 -147 10 -294 1 -259 2
-270 24 -319 41 -87 104 -119 217 -111 77 6 120 29 158 83 38 57 43 93 48 365
5 290 7 299 65 317 27 9 14 11 -82 11 -96 0 -109 -2 -82 -11 63 -20 64 -26 60
-324 -3 -256 -4 -270 -26 -310 -55 -103 -174 -108 -221 -10 -19 39 -20 64 -21
322 -1 308 -1 307 60 323 27 8 -3 10 -125 11 -146 0 -157 -1 -127 -14z"/>
</g>
</svg>
